<?xml version="1.0" encoding="UTF-8"?>
<!-- Generator: Adobe Illustrator 16.0.4, SVG Export Plug-In . SVG Version: 6.00 Build 0)  -->
<!DOCTYPE svg PUBLIC "-//W3C//DTD SVG 1.1//EN" "http://www.w3.org/Graphics/SVG/1.1/DTD/svg11.dtd">
<svg version="1.1" id="Ebene_1" xmlns="http://www.w3.org/2000/svg" xmlns:xlink="http://www.w3.org/1999/xlink" x="0px" y="0px" width="156px" height="66px" viewBox="86.1 12.2 156 66" enable-background="new 86.1 12.2 156 66" xml:space="preserve">
<path fill="#005C98" d="M224.18,55.277c0-3.851-4.515-9.031-8.128-9.031v20.438h8.128 M224.18,66.684h8.128V46.246  c-3.612,0-8.128,5.181-8.128,9.031"/>
<path fill="#2BAEE5" d="M224.18,43.251c0-2.424-2.947-8.841-8.936-8.841c-5.989,0-8.937,4.041-8.937,6.512v8.127  c0-0.332,2.329-4.515,8.937-4.515c5.988,0,8.936,5.894,8.936,5.894 M214.437,59.221V46.246c-5.182,0-8.129,4.61-8.129,6.797v6.179  H214.437 M224.18,23.716h-8.936c-4.849,0-8.937,3.47-8.937,7.462c0,1.046,0,5.894,0,5.894s2.092-4.326,9.031-4.326  c5.941,0,8.889,5.752,8.889,5.752 M224.18,50.475c0,0,2.947-5.893,8.936-5.893c6.607,0,8.937,4.182,8.937,4.515v-8.175  c0-2.472-2.947-6.512-8.937-6.512c-5.988,0-8.936,6.417-8.936,8.841 M233.972,59.221h8.128v-6.179c0-2.187-2.947-6.797-8.128-6.797  C234.019,46.246,233.972,59.221,233.972,59.221 M224.18,23.716h8.936c4.85,0,8.937,3.47,8.937,7.462c0,1.046,0,5.894,0,5.894  s-2.092-4.326-9.031-4.326c-5.941,0-8.888,5.752-8.888,5.752"/>
<path fill="#005C98" d="M194.949,41.302c-0.144,0.476-0.286,0.903-0.523,1.236c-0.237,0.333-0.523,0.618-0.855,0.808  c-0.333,0.19-0.713,0.286-1.188,0.286h-0.998v-7.32h1.188c0.476,0,0.855,0.095,1.188,0.286c0.332,0.19,0.57,0.427,0.808,0.76  c0.19,0.333,0.333,0.666,0.428,1.093s0.143,0.855,0.143,1.283C195.138,40.304,195.09,40.827,194.949,41.302 M197.325,37.595  c-0.237-0.666-0.57-1.236-0.998-1.711c-0.428-0.476-0.998-0.856-1.616-1.094c-0.618-0.285-1.331-0.38-2.139-0.38h-3.708v11.17h3.565  c0.808,0,1.568-0.143,2.186-0.428c0.666-0.286,1.188-0.666,1.616-1.188c0.429-0.523,0.761-1.141,0.998-1.854  c0.238-0.713,0.334-1.521,0.334-2.377C197.658,38.973,197.563,38.26,197.325,37.595 M186.725,45.58v-1.997h-4.183v-2.852h3.755  v-1.949h-3.755v-2.376h3.945V34.41h-6.465v11.17H186.725z M177.362,34.363h-2.473V45.58h2.473V34.363z M169.708,38.64  c-0.237,0.238-0.665,0.38-1.283,0.38h-0.903v-2.709h0.903c0.57,0,0.998,0.143,1.235,0.38c0.238,0.237,0.381,0.57,0.381,0.903  C170.088,38.023,169.947,38.355,169.708,38.64 M173.178,45.58l-1.093-2.852c-0.143-0.333-0.286-0.665-0.476-0.951  c-0.189-0.285-0.333-0.57-0.523-0.76c-0.189-0.238-0.332-0.428-0.522-0.571c-0.19-0.142-0.332-0.237-0.428-0.285  c0.19-0.048,0.381-0.095,0.666-0.19c0.284-0.095,0.522-0.285,0.808-0.475c0.237-0.19,0.476-0.476,0.665-0.809  c0.19-0.333,0.286-0.713,0.286-1.188c0-0.428-0.096-0.855-0.238-1.236c-0.143-0.38-0.38-0.713-0.713-0.951  c-0.333-0.285-0.713-0.475-1.236-0.618c-0.475-0.143-1.045-0.238-1.711-0.238h-3.564V45.58h2.472v-4.706h0.333  c0.19,0,0.38,0.095,0.569,0.238c0.19,0.142,0.334,0.332,0.523,0.57c0.143,0.238,0.285,0.476,0.428,0.761s0.237,0.476,0.285,0.713  l0.855,2.472h2.614V45.58z M162.389,45.58V34.363h-2.281v7.795l-3.042-7.795h-3.422V45.58h2.281v-7.795l3.042,7.795H162.389z   M151.504,45.58v-1.997h-4.183v-2.852h3.755v-1.949h-3.755v-2.376h3.945V34.41h-6.464v11.17H151.504z M142.521,39.116h-3.898v1.949  h1.474v2.567c-0.095,0.047-0.285,0.095-0.523,0.143c-0.285,0.047-0.523,0.047-0.76,0.047c-0.333,0-0.666-0.095-0.951-0.285  s-0.523-0.476-0.761-0.808c-0.238-0.333-0.38-0.76-0.522-1.284c-0.143-0.522-0.19-1.093-0.19-1.711c0-0.57,0.047-1.093,0.19-1.521  c0.143-0.428,0.285-0.808,0.522-1.093c0.238-0.285,0.476-0.522,0.761-0.666c0.285-0.143,0.618-0.238,0.951-0.238  c0.237,0,0.475,0.048,0.713,0.095c0.238,0.048,0.475,0.143,0.666,0.19c0.19,0.095,0.38,0.19,0.523,0.238  c0.143,0.095,0.285,0.189,0.333,0.237l0.808-2.091c-0.095-0.047-0.238-0.095-0.428-0.19c-0.19-0.095-0.428-0.19-0.713-0.238  c-0.286-0.095-0.57-0.143-0.903-0.237c-0.333-0.048-0.666-0.095-1.046-0.095c-0.618,0-1.141,0.095-1.664,0.237  c-0.475,0.19-0.903,0.38-1.283,0.666s-0.666,0.618-0.951,0.998c-0.238,0.38-0.475,0.761-0.618,1.188  c-0.19,0.428-0.285,0.808-0.38,1.236s-0.095,0.808-0.095,1.188c0,0.428,0.047,0.855,0.095,1.284  c0.047,0.475,0.143,0.903,0.285,1.331c0.143,0.428,0.333,0.855,0.523,1.284c0.238,0.428,0.522,0.76,0.903,1.093  c0.38,0.333,0.808,0.57,1.331,0.761c0.523,0.19,1.141,0.285,1.854,0.285c0.333,0,0.666-0.047,1.046-0.095s0.713-0.143,1.046-0.238  c0.333-0.095,0.618-0.19,0.903-0.285s0.476-0.19,0.666-0.285v-5.656H142.521z M130.02,40.969c-0.048,0.475-0.143,0.903-0.285,1.283  c-0.143,0.428-0.38,0.761-0.666,1.046s-0.666,0.428-1.141,0.428c-0.476,0-0.855-0.143-1.141-0.428  c-0.285-0.285-0.475-0.618-0.665-1.046c-0.143-0.427-0.238-0.855-0.285-1.331c-0.048-0.476-0.048-0.903-0.048-1.236  s0-0.713,0.048-1.141c0.047-0.428,0.142-0.808,0.285-1.141c0.143-0.333,0.38-0.618,0.665-0.855c0.286-0.238,0.666-0.333,1.141-0.333  c0.475,0,0.855,0.095,1.141,0.333s0.523,0.523,0.666,0.855c0.143,0.333,0.237,0.713,0.285,1.141  c0.047,0.428,0.095,0.808,0.095,1.141C130.067,40.114,130.067,40.494,130.02,40.969 M132.349,37.832  c-0.19-0.666-0.428-1.235-0.808-1.806c-0.38-0.523-0.855-0.998-1.474-1.331c-0.618-0.333-1.331-0.523-2.187-0.523  c-0.57,0-1.093,0.095-1.521,0.285c-0.475,0.19-0.855,0.428-1.188,0.713c-0.333,0.285-0.666,0.618-0.903,0.998  c-0.238,0.38-0.428,0.76-0.618,1.188c-0.143,0.428-0.286,0.808-0.333,1.236c-0.095,0.428-0.095,0.808-0.095,1.141  c0,0.713,0.095,1.379,0.237,2.092s0.428,1.378,0.761,1.949c0.38,0.57,0.855,1.045,1.426,1.426c0.618,0.38,1.331,0.57,2.234,0.57  c0.571,0,1.141-0.095,1.569-0.285c0.475-0.19,0.855-0.428,1.188-0.713c0.333-0.285,0.665-0.666,0.903-1.045  c0.238-0.381,0.428-0.808,0.618-1.284c0.143-0.428,0.238-0.903,0.333-1.378c0.047-0.476,0.095-0.903,0.095-1.378  C132.586,39.116,132.539,38.498,132.349,37.832 M122.224,45.58v-1.949h-4.278l4.183-7.7V34.41h-6.939v1.949h3.945l-4.183,7.7v1.521  H122.224z M110.579,38.64c-0.237,0.238-0.665,0.38-1.283,0.38h-0.855v-2.709h0.903c0.571,0,0.999,0.143,1.236,0.38  c0.238,0.237,0.38,0.57,0.38,0.903C110.912,38.023,110.816,38.355,110.579,38.64 M114.001,45.58l-1.094-2.852  c-0.143-0.333-0.285-0.665-0.475-0.951c-0.19-0.285-0.333-0.57-0.523-0.76c-0.19-0.238-0.333-0.428-0.522-0.571  c-0.19-0.142-0.333-0.237-0.428-0.285c0.19-0.048,0.38-0.095,0.666-0.19s0.523-0.285,0.808-0.475  c0.238-0.19,0.475-0.476,0.666-0.809c0.19-0.333,0.285-0.713,0.285-1.188c0-0.428-0.095-0.855-0.238-1.236  c-0.143-0.38-0.38-0.713-0.713-0.951c-0.333-0.285-0.713-0.475-1.236-0.618c-0.523-0.143-1.046-0.238-1.711-0.238h-3.565V45.58  h2.519v-4.706h0.333c0.19,0,0.38,0.095,0.57,0.238c0.19,0.142,0.333,0.332,0.523,0.57c0.143,0.238,0.285,0.476,0.428,0.761  c0.143,0.285,0.238,0.476,0.285,0.713l0.856,2.472h2.567V45.58z M103.782,45.58v-1.997h-4.183v-2.852h3.755v-1.949h-3.755v-2.376  h3.945V34.41h-6.417v11.17H103.782z M94.418,45.58V34.363h-2.472v4.325h-3.375v-4.325H86.1V45.58h2.472v-4.849h3.375v4.849H94.418z"/>
<path fill="#005C98" d="M191.288,47.767h-2.519v11.217h2.472V47.767H191.288z M197.752,58.984l-3.897-5.988l3.47-5.182h-2.852  l-3.186,5.371l3.327,5.847h3.138V58.984z M183.731,52.045c-0.238,0.237-0.666,0.38-1.284,0.38h-0.903v-2.709h0.903  c0.571,0,0.998,0.143,1.236,0.38c0.237,0.238,0.38,0.57,0.38,0.903C184.063,51.427,183.92,51.76,183.731,52.045 M187.153,58.984  l-1.094-2.852c-0.142-0.333-0.285-0.666-0.475-0.951c-0.19-0.285-0.333-0.57-0.523-0.76c-0.189-0.238-0.332-0.429-0.522-0.57  c-0.19-0.143-0.333-0.238-0.428-0.286c0.19-0.047,0.381-0.095,0.666-0.189c0.284-0.096,0.522-0.286,0.808-0.476  c0.237-0.19,0.475-0.476,0.665-0.808c0.19-0.333,0.285-0.714,0.285-1.188c0-0.429-0.095-0.855-0.237-1.236  c-0.143-0.38-0.38-0.713-0.713-0.95c-0.333-0.285-0.713-0.476-1.236-0.618c-0.522-0.143-1.045-0.238-1.711-0.238h-3.564V59.08h2.471  v-4.706h0.334c0.189,0,0.379,0.095,0.569,0.237s0.333,0.333,0.523,0.57c0.143,0.238,0.285,0.476,0.428,0.761  s0.237,0.476,0.285,0.713l0.855,2.472h2.614V58.984z M173.701,54.516h-2.709l1.331-4.468L173.701,54.516z M177.647,58.984  l-3.851-11.217h-2.805l-3.85,11.217h2.472l0.76-2.614h3.803l0.809,2.614H177.647z M164.432,52.187  c-0.237,0.285-0.712,0.428-1.331,0.428h-0.618v-2.899h0.522c0.523,0,0.951,0.095,1.331,0.333c0.333,0.237,0.522,0.57,0.522,1.046  C164.813,51.569,164.718,51.902,164.432,52.187 M167,49.62c-0.19-0.427-0.476-0.76-0.808-1.045  c-0.334-0.285-0.761-0.476-1.236-0.618s-0.999-0.189-1.568-0.189h-3.423v11.217h2.472v-4.42h1.045c0.475,0,0.95-0.048,1.378-0.19  c0.476-0.143,0.856-0.333,1.236-0.618c0.333-0.285,0.618-0.618,0.855-1.093c0.238-0.429,0.333-0.951,0.333-1.521  C167.285,50.523,167.19,50.049,167,49.62"/>
</svg>