<?xml version="1.0" encoding="UTF-8" standalone="no"?>
<!DOCTYPE svg PUBLIC "-//W3C//DTD SVG 1.1//EN" "http://www.w3.org/Graphics/SVG/1.1/DTD/svg11.dtd">
<svg width="100%" height="100%" viewBox="0 0 135 60" version="1.1" xmlns="http://www.w3.org/2000/svg" xmlns:xlink="http://www.w3.org/1999/xlink" xml:space="preserve" xmlns:serif="http://www.serif.com/" style="fill-rule:evenodd;clip-rule:evenodd;stroke-linejoin:round;stroke-miterlimit:2;">
    <g transform="matrix(1,0,0,1,-37,-119.64)">
        <g>
            <path d="M37,119.64L37,150.24C37,156.39 38.22,159.12 40.28,163.15C45.27,172.91 55.26,179.03 66.18,179.16C66.3,179.16 66.42,179.17 66.54,179.17C76.11,179.17 85.11,174.52 90.65,166.66C94.14,161.7 96.26,155.95 96.26,149.67L96.26,119.65L37,119.65L37,119.64Z" style="fill-rule:nonzero;"/>
            <path d="M37.51,120.15L37.51,150.22C37.51,156.27 38.71,158.94 40.74,162.91C45.65,172.5 55.46,178.52 66.19,178.65C66.31,178.65 66.42,178.66 66.54,178.66C75.95,178.66 84.79,174.09 90.23,166.36C93.66,161.49 95.75,155.84 95.75,149.66L95.75,120.15L37.51,120.15Z" style="fill:rgb(239,213,34);fill-rule:nonzero;"/>
            <path d="M72.8,156.43L76.76,158.82L74.19,160.02L75.88,163.05L76,162.93L76.11,161.51L78.74,160.21L78.93,164L77.46,164.62L77.46,164.9L80.39,165.43L80.64,161.08L82.75,162.16L83.02,163.35L83.24,163.46L84.73,160.75L81.4,159L84.1,158.55L84.86,159.15L85.09,159.14L84.52,156.29L79.33,157.55L76.45,155.88L77.63,155.35L70.66,149.05L71.36,144.7L71.87,149.02L76.8,152.92L74.56,144.38L75.38,144.12L77.99,154.46L82.99,155.35L77.62,142.74L77.96,142.48L84.67,154.99L88.83,152.38L79.67,140.23L79.98,139.93L88.83,150.3L88.83,143.75L80.64,136.97L80.64,136.63L88.83,142.48L88.83,137.8L80.64,133.52L80.64,133.22L88.83,136.97L88.83,132.3L80.64,130.3L80.64,130.04L88.83,131.59L88.83,126.82L79.68,127.45L79.68,126.33C79.09,126.28 78.19,126.64 77.63,126.83C76.69,127.13 75.87,127.59 75.38,128.59C75.12,129.11 75.04,129.38 75.04,130.05L75.04,134.54C75.02,135.6 74.95,136.72 74.01,137.52C73.32,138.11 72.05,138.23 71.79,138.25L70.93,136.99L70.1,136.99L69.91,134.54L71.37,134.54L70.06,132.59L71.45,131.56L69.4,128.58L71.59,126.05L69.75,126.05L69.88,125.8L64.29,125.8L63.44,126.7C63.19,126.59 62.94,126.51 62.67,126.44C62.31,126.36 61.95,126.25 61.58,126.32C61.1,126.42 60.58,126.68 60.44,127.13C60.19,127.86 60.44,128.63 60.62,129.32C60.72,129.72 60.85,130.13 60.97,130.51C60.77,130.48 60.58,130.46 60.37,130.46C60.16,130.45 59.96,130.46 59.75,130.47L59.81,131.05C59.86,131.06 59.87,131.05 59.91,131.05C59.99,131.06 60.05,131.06 60.11,131.06C60.32,131.07 60.52,131.1 60.73,131.12C61.07,131.17 61.44,131.22 61.78,131.3C62.03,131.36 62.09,131.39 62.47,131.54C62.5,131.56 62.55,131.6 62.53,131.64C62.52,131.67 62.48,131.69 62.45,131.69C62.39,131.69 62.33,131.67 62.29,131.66C62.17,131.64 62.1,131.64 61.99,131.65C61.85,131.66 61.71,131.67 61.56,131.69C61.52,131.77 61.5,131.87 61.48,131.96C61.42,132.3 61.54,132.64 61.73,132.91C61.9,133.16 62.14,133.36 62.42,133.48C62.72,133.61 63.07,133.64 63.39,133.57C63.18,133.9 62.97,134.24 62.78,134.59C62.49,135.13 62.18,135.68 62,136.27C61.9,136.59 61.88,136.67 61.84,136.99L60.8,136.99L60.8,138.26C60.44,138.2 59.73,137.97 59.21,137.52C58.29,136.71 58.22,135.2 58.18,134.54L58.18,130.05C58.23,129.65 58.1,129.11 57.84,128.59C57.35,127.59 56.61,127.29 55.59,126.83C54.84,126.5 53.92,126.34 53.54,126.33L53.54,127.45L44.39,126.82L44.39,131.55L52.58,130.03L52.58,130.29L44.39,132.29L44.39,136.96L52.58,133.21L52.58,133.51L44.39,137.79L44.39,142.47L52.58,136.62L52.58,136.96L44.39,143.74L44.39,150.29L53.24,139.92L53.58,140.22L44.39,152.37L48.55,154.98L55.26,142.47L55.6,142.73L50.08,155.34L55.02,154.54L57.86,144.11L58.7,144.33L56.44,152.91L61.26,149L61.88,144.69L62.47,149.07L55.61,155.34L56.8,155.87L53.92,157.54L48.73,156.28L48.16,159.13L48.39,159.14L49.15,158.54L51.85,158.99L48.53,160.76L50.02,163.47L50.24,163.36L50.51,162.17L52.62,161.09L52.87,165.44L55.8,164.91L55.8,164.63L54.33,164.01L54.52,160.22L57.15,161.52L57.26,162.94L57.38,163.06L59.07,160.03L56.5,158.83L60.46,156.44L60.81,157.2L62.53,155.8C62.85,156.73 62.85,157.4 62.52,158.33C62.09,159.57 60.63,160.27 60.13,160.7L60.81,162.2C60.43,162.69 59.92,163.06 59.22,163.4C58.45,163.76 57.74,163.85 57.1,163.88L54.83,166.75L59.22,170.75L58.84,168.16C59.28,168.1 60.8,167.12 61.76,166.12C62.39,165.47 62.74,164.95 63.15,164.27L64.27,164.85C63.93,165.66 63.36,166.45 62.52,167.25C61.71,168.01 61.17,168.36 60.13,168.79L60.13,169.27C61.4,169.27 62.5,169.01 63.78,169.65C64.55,170.04 64.98,170.21 65.5,171.04C65.74,171.43 66.51,172.76 66.63,173.2C66.8,172.54 67.14,171.76 67.76,171.04C68.31,170.39 68.72,170.08 69.47,169.7C70.76,169.06 72.04,169.28 73.13,169.28L73.13,168.79C72.46,168.5 71.31,167.7 70.74,167.25C70.13,166.76 69.19,165.24 68.99,164.85L70.11,164.27C70.41,164.83 70.87,165.47 71.5,166.12C72.47,167.12 73.54,168.01 74.42,168.16L74.04,170.75L78.43,166.75L76.16,163.88C75.77,163.89 74.8,163.76 74.04,163.4C73.34,163.07 72.79,162.62 72.45,162.21L73.13,160.71C72.27,160.09 71.17,159.58 70.74,158.34C70.42,157.41 70.42,156.74 70.74,155.81L72.45,157.21L72.8,156.43Z" style="fill-rule:nonzero;"/>
            <path d="M59.62,156.09L57.51,156.09L53.97,158.06L49.14,156.92L48.91,158.06L53.15,158.78L49.2,160.98L49.89,162.23L50,161.77L53.11,160.06L53.31,164.83L54.69,164.69L53.97,164.41L54.15,159.24L57.58,161.11L57.65,161.32L58.19,160.3L55.36,158.82L59.62,156.09Z" style="fill:rgb(195,25,36);fill-rule:nonzero;"/>
            <path d="M61.77,130.64C62.05,130.72 62.33,130.81 62.6,130.91C62.94,131.05 63.27,131.2 63.59,131.38L62.63,129.64C62.44,129.71 62.28,129.82 62.14,129.95C61.95,130.15 61.82,130.38 61.77,130.64Z" style="fill:rgb(239,213,34);fill-rule:nonzero;"/>
            <path d="M73.63,156.09L75.74,156.09L79.28,158.06L84.11,156.92L84.34,158.06L80.11,158.78L84.06,160.98L83.36,162.23L83.25,161.77L80.14,160.06L79.95,164.83L78.57,164.69L79.28,164.41L79.1,159.24L75.68,161.11L75.6,161.32L75.06,160.3L77.89,158.82L73.63,156.09Z" style="fill:rgb(195,25,36);fill-rule:nonzero;"/>
            <path d="M61.25,129.99L61.85,129.39C62.06,129.18 62.22,129.06 62.48,129.06C62.65,129.07 62.79,129.12 62.92,129.23C63.01,129.31 63.09,129.41 63.14,129.52L64.19,131.49C64.34,131.69 64.35,131.96 64.22,132.17C64.16,132.26 64.08,132.33 63.99,132.38C63.82,132.48 63.62,132.49 63.43,132.49C63.27,132.49 63.1,132.48 62.96,132.4C62.91,132.37 62.88,132.33 62.82,132.3C62.7,132.24 62.57,132.21 62.44,132.22C62.32,132.23 62.16,132.23 62.1,132.36C62.07,132.41 62.07,132.47 62.08,132.52C62.09,132.71 62.29,132.8 62.44,132.9C62.62,133.02 62.83,133.05 63.04,133.09C63.23,133.13 63.45,133.18 63.65,133.18L64.87,133.18C65.5,133.17 65.62,132.94 65.86,132.69C66.1,132.44 66.16,132.09 66.2,131.76C66.28,131.16 66.05,130.59 65.8,130.06C65.61,129.64 65.31,129.29 65.02,128.94C64.6,128.44 64.22,128.06 63.68,127.62C63.23,127.26 62.59,126.96 62,127C61.59,127.03 61.13,127.08 60.89,127.44C60.69,127.75 60.75,128.14 60.78,128.49C60.81,128.88 60.94,129.24 61.07,129.61C61.14,129.73 61.19,129.86 61.25,129.99Z" style="fill:rgb(195,25,36);fill-rule:nonzero;"/>
            <path d="M65.41,128.24L65.93,129.25L67.53,128.24L65.41,128.24Z" style="fill:white;fill-rule:nonzero;"/>
            <path d="M107.45,125.43L107.33,126.59C106.93,126.39 106.5,126.29 106.05,126.29C105.9,126.29 105.75,126.32 105.6,126.37C105.45,126.43 105.32,126.53 105.22,126.67C105.12,126.81 105.06,127.01 105.06,127.26C105.07,127.5 105.16,127.68 105.35,127.82C105.53,127.96 105.76,128.08 106.04,128.19C106.31,128.3 106.59,128.43 106.86,128.58C107.13,128.73 107.36,128.95 107.55,129.22C107.73,129.49 107.83,129.86 107.84,130.33C107.83,130.84 107.72,131.25 107.51,131.57C107.3,131.88 107.01,132.11 106.65,132.25C106.29,132.39 105.9,132.46 105.47,132.46C105.25,132.46 105.05,132.45 104.88,132.43C104.71,132.41 104.55,132.38 104.39,132.34C104.23,132.3 104.05,132.25 103.85,132.19L103.97,130.92C104.41,131.2 104.89,131.34 105.4,131.35C105.56,131.35 105.73,131.32 105.9,131.26C106.07,131.2 106.22,131.1 106.33,130.96C106.45,130.83 106.51,130.65 106.51,130.44C106.5,130.18 106.41,129.97 106.22,129.82C106.04,129.67 105.81,129.54 105.53,129.43C105.26,129.32 104.98,129.19 104.71,129.04C104.44,128.89 104.21,128.68 104.02,128.41C103.84,128.14 103.74,127.78 103.73,127.32C103.74,126.8 103.84,126.38 104.05,126.06C104.26,125.74 104.53,125.52 104.86,125.38C105.19,125.24 105.55,125.17 105.93,125.17C106.49,125.17 106.99,125.26 107.45,125.43Z" style="fill:white;fill-rule:nonzero;"/>
            <path d="M109.25,130.77L109.25,128.13L108.36,128.13L108.36,127.14L109.25,127.14L109.25,126.1L110.46,125.67L110.46,127.14L111.53,127.14L111.53,128.13L110.46,128.13L110.46,130.55C110.45,130.78 110.49,130.98 110.57,131.14C110.65,131.31 110.8,131.39 111.03,131.4C111.26,131.4 111.44,131.35 111.58,131.26L111.62,132.33C111.38,132.41 111.08,132.45 110.73,132.45C110.25,132.44 109.89,132.29 109.64,131.99C109.38,131.7 109.25,131.29 109.25,130.77Z" style="fill:white;fill-rule:nonzero;"/>
            <path d="M112.61,128.57L112.57,127.41C112.81,127.29 113.07,127.19 113.36,127.12C113.65,127.05 113.92,127.02 114.19,127.01C114.89,127.01 115.41,127.18 115.72,127.53C116.04,127.88 116.2,128.44 116.19,129.2L116.19,129.87C116.19,130.13 116.19,130.36 116.2,130.57C116.2,130.78 116.21,130.98 116.21,131.17C116.22,131.55 116.24,131.94 116.26,132.33L115.19,132.33C115.17,132.19 115.16,132.05 115.15,131.9C115.14,131.75 115.14,131.64 115.14,131.55L115.12,131.55C114.97,131.84 114.77,132.06 114.5,132.21C114.24,132.36 113.96,132.44 113.68,132.44C113.4,132.44 113.14,132.38 112.89,132.26C112.64,132.14 112.44,131.97 112.29,131.74C112.14,131.51 112.06,131.23 112.05,130.9C112.05,130.51 112.13,130.2 112.27,129.96C112.42,129.72 112.61,129.54 112.84,129.42C113.07,129.3 113.33,129.21 113.6,129.17C113.87,129.13 114.14,129.11 114.4,129.11L115.07,129.11C115.07,128.7 114.99,128.41 114.81,128.24C114.64,128.07 114.37,127.99 114.02,127.99C113.76,127.99 113.51,128.04 113.26,128.14C113.04,128.26 112.82,128.4 112.61,128.57ZM113.23,130.83C113.23,131.05 113.31,131.21 113.45,131.31C113.59,131.41 113.77,131.46 114,131.46C114.37,131.45 114.66,131.29 114.85,131C114.95,130.85 115.01,130.69 115.05,130.51C115.09,130.33 115.1,130.14 115.1,129.93L114.58,129.93C114.39,129.93 114.2,129.94 113.99,129.99C113.78,130.03 113.61,130.12 113.46,130.25C113.31,130.37 113.23,130.56 113.23,130.83Z" style="fill:white;"/>
            <path d="M118.36,129.72C118.36,129.97 118.39,130.22 118.45,130.47C118.51,130.73 118.62,130.94 118.76,131.12C118.91,131.3 119.12,131.39 119.38,131.4C119.65,131.39 119.86,131.3 120.01,131.13C120.17,130.96 120.28,130.74 120.34,130.48C120.41,130.22 120.44,129.97 120.44,129.72C120.44,129.47 120.4,129.22 120.33,128.97C120.26,128.72 120.14,128.51 119.98,128.34C119.82,128.17 119.61,128.08 119.35,128.07C119.09,128.08 118.89,128.17 118.74,128.34C118.59,128.52 118.49,128.73 118.43,128.98C118.38,129.24 118.35,129.49 118.36,129.72ZM120.49,132.35L120.49,131.76L120.47,131.76C120.29,132.01 120.08,132.19 119.83,132.3C119.59,132.41 119.32,132.47 119.04,132.46C118.57,132.45 118.19,132.32 117.9,132.07C117.61,131.82 117.41,131.48 117.28,131.07C117.15,130.66 117.09,130.21 117.09,129.73C117.09,129.25 117.15,128.8 117.28,128.39C117.41,127.98 117.62,127.66 117.9,127.41C118.19,127.16 118.57,127.03 119.04,127.03C119.34,127.03 119.6,127.09 119.83,127.21C120.05,127.33 120.26,127.51 120.43,127.76L120.45,127.76L120.45,124.79L121.66,124.79L121.66,132.35L120.49,132.35Z" style="fill:white;"/>
            <path d="M123.29,130.77L123.29,128.13L122.4,128.13L122.4,127.14L123.29,127.14L123.29,126.1L124.5,125.67L124.5,127.14L125.57,127.14L125.57,128.13L124.5,128.13L124.5,130.55C124.49,130.78 124.53,130.98 124.61,131.14C124.69,131.31 124.84,131.39 125.07,131.4C125.3,131.4 125.48,131.35 125.62,131.26L125.66,132.33C125.42,132.41 125.12,132.45 124.77,132.45C124.29,132.44 123.93,132.29 123.68,131.99C123.42,131.7 123.29,131.29 123.29,130.77Z" style="fill:white;fill-rule:nonzero;"/>
            <path d="M129.02,132.32L129.02,125.28L130.74,125.28C131.39,125.27 131.99,125.37 132.54,125.57C133.09,125.77 133.53,126.13 133.86,126.64C134.19,127.15 134.36,127.87 134.37,128.79C134.36,129.71 134.19,130.43 133.86,130.94C133.53,131.45 133.09,131.81 132.54,132.01C131.99,132.21 131.39,132.31 130.74,132.3L129.02,132.3L129.02,132.32ZM130.28,126.4L130.28,131.22L130.98,131.22C131.34,131.22 131.67,131.12 131.99,130.94C132.3,130.75 132.56,130.48 132.76,130.12C132.96,129.76 133.06,129.33 133.06,128.81C133.05,128.3 132.95,127.86 132.76,127.5C132.56,127.14 132.31,126.87 131.99,126.68C131.68,126.49 131.34,126.4 130.98,126.4L130.28,126.4Z" style="fill:white;"/>
            <path d="M135.13,129.78C135.13,129.21 135.24,128.71 135.45,128.3C135.66,127.89 135.95,127.58 136.31,127.36C136.67,127.14 137.09,127.03 137.55,127.03C138.02,127.03 138.43,127.14 138.8,127.36C139.17,127.58 139.45,127.89 139.67,128.3C139.88,128.71 139.99,129.2 140,129.78C140,130.28 139.9,130.74 139.71,131.14C139.52,131.54 139.24,131.86 138.88,132.1C138.52,132.34 138.08,132.46 137.56,132.46C137.05,132.45 136.61,132.33 136.25,132.1C135.89,131.86 135.61,131.54 135.42,131.14C135.23,130.73 135.14,130.28 135.13,129.78ZM136.4,129.61C136.4,129.9 136.43,130.18 136.5,130.46C136.57,130.73 136.69,130.96 136.86,131.13C137.03,131.31 137.27,131.4 137.57,131.4C137.88,131.39 138.12,131.3 138.29,131.13C138.46,130.95 138.58,130.73 138.65,130.46C138.72,130.19 138.75,129.9 138.75,129.61C138.75,129.34 138.71,129.09 138.62,128.86C138.53,128.63 138.41,128.44 138.23,128.29C138.06,128.15 137.84,128.07 137.57,128.07C137.31,128.07 137.09,128.15 136.92,128.3C136.75,128.45 136.62,128.64 136.53,128.87C136.44,129.1 136.4,129.35 136.4,129.61Z" style="fill:white;"/>
            <path d="M140.96,132.33L140.96,127.14L142.03,127.14L142.03,128.32L142.05,128.32C142.07,128.15 142.13,127.97 142.24,127.77C142.35,127.57 142.5,127.4 142.68,127.25C142.86,127.1 143.08,127.03 143.32,127.02C143.44,127.01 143.56,127.03 143.69,127.06L143.69,128.42C143.63,128.38 143.56,128.36 143.46,128.34C143.36,128.32 143.26,128.31 143.15,128.31C142.83,128.32 142.6,128.45 142.46,128.69C142.32,128.93 142.24,129.22 142.2,129.54C142.17,129.87 142.16,130.16 142.16,130.42L142.16,132.32L140.96,132.32L140.96,132.33Z" style="fill:white;fill-rule:nonzero;"/>
            <path d="M144.84,130.77L144.84,128.13L143.95,128.13L143.95,127.14L144.84,127.14L144.84,126.1L146.05,125.67L146.05,127.14L147.12,127.14L147.12,128.13L146.05,128.13L146.05,130.55C146.04,130.78 146.08,130.98 146.16,131.14C146.24,131.31 146.39,131.39 146.62,131.4C146.85,131.4 147.03,131.35 147.17,131.26L147.21,132.33C146.97,132.41 146.67,132.45 146.32,132.45C145.84,132.44 145.48,132.29 145.23,131.99C144.97,131.7 144.85,131.29 144.84,130.77Z" style="fill:white;fill-rule:nonzero;"/>
            <path d="M147.94,132.33L147.94,127.14L149.07,127.14L149.07,127.87L149.09,127.87C149.29,127.56 149.51,127.34 149.75,127.21C150,127.08 150.24,127.02 150.47,127.02C150.8,127.02 151.07,127.09 151.3,127.24C151.53,127.39 151.71,127.62 151.84,127.94C151.99,127.63 152.19,127.4 152.46,127.25C152.72,127.1 153,127.03 153.3,127.03C153.86,127.04 154.25,127.24 154.47,127.61C154.68,127.99 154.79,128.47 154.78,129.06L154.78,132.34L153.57,132.34L153.57,129.25C153.57,129.08 153.57,128.91 153.54,128.73C153.52,128.55 153.46,128.4 153.36,128.27C153.26,128.15 153.1,128.08 152.87,128.07C152.61,128.08 152.41,128.18 152.28,128.37C152.15,128.56 152.06,128.79 152.02,129.06C151.98,129.33 151.96,129.58 151.96,129.81L151.96,132.33L150.75,132.33L150.75,129.24C150.75,129.07 150.75,128.9 150.72,128.72C150.7,128.54 150.64,128.39 150.54,128.26C150.44,128.14 150.28,128.07 150.05,128.06C149.79,128.07 149.59,128.17 149.46,128.36C149.33,128.55 149.24,128.78 149.2,129.05C149.16,129.32 149.14,129.57 149.14,129.8L149.14,132.32L147.94,132.32L147.94,132.33Z" style="fill:white;fill-rule:nonzero;"/>
            <path d="M160.26,127.13L160.26,132.33L159.11,132.33L159.11,131.62L159.09,131.62C158.9,131.88 158.68,132.08 158.43,132.22C158.17,132.37 157.89,132.44 157.57,132.44C157.02,132.43 156.62,132.24 156.37,131.86C156.12,131.49 155.99,131 155.99,130.4L155.99,127.12L157.2,127.12L157.2,129.89C157.2,130.11 157.21,130.33 157.23,130.56C157.26,130.79 157.32,130.98 157.44,131.14C157.55,131.3 157.73,131.38 157.99,131.39C158.28,131.38 158.5,131.28 158.66,131.09C158.81,130.9 158.92,130.67 158.98,130.41C159.04,130.15 159.06,129.9 159.06,129.67L159.06,127.13L160.26,127.13Z" style="fill:white;fill-rule:nonzero;"/>
            <path d="M161.49,132.33L161.49,127.14L162.64,127.14L162.64,127.85L162.66,127.85C162.85,127.56 163.07,127.34 163.33,127.21C163.59,127.08 163.87,127.02 164.19,127.02C164.74,127.03 165.14,127.22 165.39,127.6C165.64,127.97 165.77,128.46 165.77,129.06L165.77,132.34L164.56,132.34L164.56,129.57C164.56,129.35 164.55,129.13 164.53,128.9C164.5,128.67 164.44,128.48 164.32,128.32C164.21,128.16 164.03,128.08 163.77,128.07C163.48,128.08 163.26,128.18 163.1,128.37C162.95,128.56 162.84,128.79 162.78,129.05C162.72,129.31 162.7,129.56 162.7,129.79L162.7,132.33L161.49,132.33Z" style="fill:white;fill-rule:nonzero;"/>
            <path d="M167.99,129.72C167.99,129.97 168.02,130.22 168.08,130.47C168.14,130.73 168.25,130.94 168.39,131.12C168.54,131.3 168.74,131.39 169.01,131.4C169.28,131.39 169.49,131.3 169.64,131.13C169.8,130.96 169.91,130.74 169.97,130.48C170.04,130.22 170.07,129.97 170.07,129.72C170.07,129.47 170.03,129.22 169.96,128.97C169.89,128.72 169.77,128.51 169.61,128.34C169.45,128.17 169.24,128.08 168.98,128.07C168.72,128.08 168.52,128.17 168.37,128.34C168.22,128.52 168.12,128.73 168.06,128.98C168.01,129.24 167.99,129.49 167.99,129.72ZM170.12,132.35L170.12,131.76L170.1,131.76C169.92,132.01 169.71,132.19 169.46,132.3C169.22,132.41 168.95,132.47 168.67,132.46C168.2,132.45 167.82,132.32 167.53,132.07C167.24,131.82 167.04,131.48 166.91,131.07C166.78,130.66 166.72,130.21 166.72,129.73C166.72,129.25 166.78,128.8 166.91,128.39C167.04,127.98 167.25,127.66 167.53,127.41C167.82,127.16 168.2,127.03 168.67,127.03C168.97,127.03 169.23,127.09 169.46,127.21C169.68,127.33 169.89,127.51 170.06,127.76L170.08,127.76L170.08,124.79L171.29,124.79L171.29,132.35L170.12,132.35Z" style="fill:white;"/>
        </g>
    </g>
</svg>
