<?xml version="1.0" encoding="UTF-8"?>
<!-- Generator: Adobe Illustrator 16.0.4, SVG Export Plug-In . SVG Version: 6.00 Build 0)  -->
<!DOCTYPE svg PUBLIC "-//W3C//DTD SVG 1.1//EN" "http://www.w3.org/Graphics/SVG/1.1/DTD/svg11.dtd">
<svg version="1.1" id="Ebene_1" xmlns="http://www.w3.org/2000/svg" xmlns:xlink="http://www.w3.org/1999/xlink" x="0px" y="0px" width="143.157px" height="65px" viewBox="27.971 12.7 143.157 65" enable-background="new 27.971 12.7 143.157 65" xml:space="preserve">
<path fill="#A3AA1F" d="M144.022,60.443c0-5.823-6.831-13.66-12.294-13.66V77.7h12.294 M144.022,77.7h12.295V46.783  c-5.464,0-12.295,7.837-12.295,13.66"/>
<path fill="#C7D300" d="M144.022,42.252c0-3.667-4.458-13.375-13.517-13.375c-9.061,0-13.518,6.112-13.518,9.851v12.294  c0-0.501,3.521-6.83,13.518-6.83c9.059,0,13.517,8.916,13.517,8.916 M129.21,66.412V46.783c-7.838,0-12.296,6.974-12.296,10.281  v9.348H129.21 M144.022,12.7h-13.517c-7.336,0-13.518,5.249-13.518,11.288c0,1.583,0,8.917,0,8.917s3.163-6.543,13.66-6.543  c8.989,0,13.447,8.7,13.447,8.7 M144.022,53.18c0,0,4.459-8.915,13.519-8.915c9.993,0,13.518,6.327,13.518,6.83V38.729  c0-3.739-4.458-9.851-13.518-9.851s-13.519,9.708-13.519,13.375 M158.834,66.412h12.294v-9.348c0-3.308-4.458-10.281-12.294-10.281  V66.412 M144.022,12.7h13.519c7.334,0,13.518,5.249,13.518,11.288c0,1.583,0,8.917,0,8.917s-3.163-6.543-13.662-6.543  c-8.987,0-13.445,8.7-13.445,8.7"/>
<path fill="#A2A700" d="M103.324,46.279V29.31h-3.45v11.791L95.272,29.31h-5.178v16.969h3.452V34.487l4.601,11.792H103.324z   M86.931,46.279v-3.02h-6.328v-4.315h5.681v-2.947h-5.681v-3.595h5.968v-3.02h-9.707V46.35h10.066V46.279z M73.198,39.304  c-0.359-0.503-0.791-1.007-1.366-1.438c-0.575-0.431-1.151-0.863-1.798-1.222c-0.647-0.359-1.222-0.719-1.797-1.079  c-0.575-0.359-1.006-0.646-1.367-0.934c-0.359-0.287-0.575-0.647-0.575-0.935c0-0.504,0.144-0.864,0.504-1.151  c0.288-0.288,0.863-0.432,1.51-0.432c0.216,0,0.503,0.072,0.863,0.144c0.359,0.072,0.718,0.216,1.078,0.288  c0.359,0.144,0.719,0.287,1.007,0.359c0.288,0.144,0.503,0.287,0.575,0.359l1.223-3.092c-0.144-0.072-0.359-0.215-0.647-0.287  c-0.288-0.144-0.647-0.288-1.079-0.36c-0.431-0.144-0.863-0.215-1.438-0.287c-0.503-0.072-1.078-0.144-1.653-0.144  c-0.934,0-1.726,0.144-2.445,0.359c-0.719,0.288-1.294,0.576-1.797,1.079c-0.504,0.432-0.863,1.006-1.15,1.654  c-0.288,0.646-0.36,1.293-0.36,2.085c0,0.647,0.216,1.222,0.576,1.653c0.36,0.504,0.791,0.935,1.366,1.366  c0.575,0.431,1.15,0.863,1.725,1.224c0.647,0.359,1.223,0.718,1.727,1.078c0.575,0.36,1.006,0.647,1.365,1.007  c0.36,0.359,0.576,0.718,0.576,1.006c0,0.647-0.216,1.078-0.647,1.438c-0.431,0.288-1.007,0.503-1.653,0.503  c-0.36,0-0.792-0.072-1.224-0.144c-0.43-0.071-0.863-0.215-1.222-0.359s-0.719-0.289-1.005-0.432  c-0.288-0.144-0.504-0.287-0.647-0.359l-1.223,3.164c0.144,0.072,0.36,0.216,0.719,0.359s0.792,0.288,1.294,0.433  c0.503,0.143,1.007,0.215,1.582,0.359c0.575,0.07,1.15,0.143,1.654,0.143c0.862,0,1.726-0.143,2.444-0.359  c0.719-0.287,1.367-0.647,1.942-1.15c0.575-0.503,1.007-1.078,1.294-1.726c0.288-0.647,0.503-1.438,0.503-2.301  C73.773,40.383,73.557,39.807,73.198,39.304 M59.393,29.31h-3.739v16.969h3.739V29.31z M51.843,29.31h-3.739v10.281  c0,0.432,0,0.863-0.072,1.294c-0.072,0.431-0.216,0.863-0.36,1.223c-0.143,0.359-0.431,0.646-0.719,0.935  c-0.287,0.216-0.719,0.359-1.222,0.359c-0.576,0-1.006-0.144-1.366-0.359c-0.36-0.216-0.576-0.576-0.72-0.935  s-0.288-0.792-0.288-1.223c0-0.431-0.071-0.862-0.071-1.222V29.31h-3.738v10.354c0,0.719,0.072,1.51,0.215,2.3  c0.145,0.791,0.432,1.51,0.935,2.229c0.432,0.647,1.079,1.222,1.869,1.654c0.791,0.432,1.87,0.647,3.235,0.647  c1.15,0,2.157-0.216,2.949-0.647c0.791-0.432,1.438-1.007,1.941-1.726c0.503-0.719,0.791-1.439,1.006-2.229  c0.216-0.792,0.287-1.582,0.287-2.301V29.31H51.843z M37.39,46.279v-3.164h-5.68V29.31h-3.739v16.969H37.39z"/>
<path fill="#A3AA1F" d="M94.049,49.513H90.31v16.969h3.739V49.513z M103.829,66.412l-5.897-9.06l5.25-7.839h-4.315l-4.818,8.125  l5.034,8.844h4.747V66.412z M82.617,55.915c-0.359,0.358-1.007,0.573-1.942,0.573h-1.367V52.39h1.367c0.863,0,1.51,0.216,1.87,0.574  c0.359,0.36,0.576,0.864,0.576,1.367C83.121,54.978,82.977,55.482,82.617,55.915 M87.795,66.412l-1.654-4.315  c-0.216-0.503-0.432-1.007-0.72-1.438c-0.287-0.431-0.502-0.86-0.79-1.148c-0.288-0.361-0.504-0.648-0.791-0.864  c-0.288-0.216-0.503-0.358-0.647-0.431c0.288-0.072,0.575-0.144,1.007-0.288c0.432-0.144,0.791-0.432,1.222-0.72  c0.36-0.287,0.72-0.719,1.008-1.222c0.287-0.503,0.431-1.078,0.431-1.799c0-0.646-0.144-1.293-0.359-1.868  c-0.216-0.575-0.575-1.078-1.08-1.438c-0.502-0.432-1.078-0.719-1.869-0.935c-0.719-0.218-1.582-0.36-2.588-0.36h-5.393v16.97h3.738  v-7.119h0.504c0.288,0,0.575,0.146,0.863,0.361c0.288,0.214,0.504,0.503,0.791,0.86c0.216,0.361,0.432,0.72,0.647,1.15  c0.216,0.434,0.36,0.72,0.431,1.079l1.294,3.739h3.955V66.412z M67.446,59.652h-4.098l2.013-6.688L67.446,59.652z M73.414,66.412  l-5.825-16.97h-4.242l-5.825,16.97h3.739l1.151-3.956h5.752l1.223,3.956H73.414z M53.497,56.13c-0.36,0.432-1.079,0.646-2.086,0.646  h-0.934V52.39h0.791c0.791,0,1.438,0.144,2.014,0.503c0.503,0.359,0.791,0.863,0.791,1.582C54,55.196,53.857,55.77,53.497,56.13   M57.379,52.246c-0.287-0.646-0.719-1.15-1.221-1.58c-0.504-0.432-1.151-0.72-1.87-0.938c-0.719-0.215-1.51-0.286-2.373-0.286  h-5.177v16.97h3.739v-6.688h1.582c0.719,0,1.438-0.072,2.085-0.288c0.719-0.215,1.294-0.503,1.87-0.935  c0.503-0.431,0.934-0.934,1.293-1.653c0.36-0.647,0.503-1.438,0.503-2.301S57.667,52.893,57.379,52.246"/>
</svg>